<svg width="16" height="17" viewBox="0 0 16 17" fill="none" xmlns="http://www.w3.org/2000/svg">
<g clip-path="url(#clip0_439_99)">
<mask id="mask0_439_99" style="mask-type:alpha" maskUnits="userSpaceOnUse" x="0" y="0" width="16" height="17">
<path d="M8 16.6899C12.4183 16.6899 16 13.1082 16 8.68994C16 4.27166 12.4183 0.689941 8 0.689941C3.58172 0.689941 0 4.27166 0 8.68994C0 13.1082 3.58172 16.6899 8 16.6899Z" fill="#C4C4C4"/>
</mask>
<g mask="url(#mask0_439_99)">
<path d="M7.99996 0.689941H-1.33337V16.6899H7.99996V0.689941Z" fill="#2B9F5A"/>
<path d="M20 0.689941H8V16.6899H20V0.689941Z" fill="#DC251C"/>
<path d="M7.99992 12.3568C10.025 12.3568 11.6666 10.7151 11.6666 8.6901C11.6666 6.66506 10.025 5.02344 7.99992 5.02344C5.97487 5.02344 4.33325 6.66506 4.33325 8.6901C4.33325 10.7151 5.97487 12.3568 7.99992 12.3568Z" stroke="#FFD018" stroke-width="0.666667"/>
<path d="M5.33325 7.35677C5.33325 6.62039 5.93021 6.02344 6.66659 6.02344H9.33325C10.0697 6.02344 10.6666 6.62039 10.6666 7.35677V8.6901C10.6666 10.1628 9.47265 11.3568 7.99992 11.3568C6.52716 11.3568 5.33325 10.1628 5.33325 8.6901V7.35677Z" fill="#DC251C"/>
<path d="M6.66663 7.35645H9.33329V8.68978C9.33329 9.42618 8.73636 10.0231 7.99996 10.0231C7.26356 10.0231 6.66663 9.42618 6.66663 8.68978V7.35645Z" fill="#F5F8FB"/>
</g>
</g>
<defs>
<clipPath id="clip0_439_99">
<rect width="16" height="16" fill="white" transform="translate(0 0.689941)"/>
</clipPath>
</defs>
</svg>
