<svg width="16" height="17" viewBox="0 0 16 17" fill="none" xmlns="http://www.w3.org/2000/svg">
<g clip-path="url(#clip0_439_47)">
<mask id="mask0_439_47" style="mask-type:alpha" maskUnits="userSpaceOnUse" x="0" y="0" width="16" height="17">
<path d="M8 16.6899C12.4183 16.6899 16 13.1082 16 8.68994C16 4.27166 12.4183 0.689941 8 0.689941C3.58172 0.689941 0 4.27166 0 8.68994C0 13.1082 3.58172 16.6899 8 16.6899Z" fill="#C4C4C4"/>
</mask>
<g mask="url(#mask0_439_47)">
<path d="M19.3333 0.689941H-2V16.6899H19.3333V0.689941Z" fill="#FFD018"/>
<path d="M19.3333 0.689941H-2V4.68994H19.3333V0.689941Z" fill="#DC251C"/>
<path d="M19.3333 12.6899H-2V16.6899H19.3333V12.6899Z" fill="#DC251C"/>
<path d="M4.66667 6.02344H2V8.6901H4.66667V6.02344Z" fill="#DC251C"/>
<path d="M2 8.68994H4.66667V11.3566H2.66667C2.29848 11.3566 2 11.0581 2 10.6899V8.68994Z" fill="#FF8718"/>
<path d="M4.66663 8.68994H7.33329V10.6899C7.33329 11.0581 7.03483 11.3566 6.66663 11.3566H4.66663V8.68994Z" fill="#DC251C"/>
<path d="M7.33329 6.02344H4.66663V8.6901H7.33329V6.02344Z" fill="#A6A6A6"/>
<path d="M4.66667 9.35677C5.03486 9.35677 5.33333 9.05829 5.33333 8.6901C5.33333 8.32191 5.03486 8.02344 4.66667 8.02344C4.29848 8.02344 4 8.32191 4 8.6901C4 9.05829 4.29848 9.35677 4.66667 9.35677Z" fill="#41479B"/>
</g>
</g>
<defs>
<clipPath id="clip0_439_47">
<rect width="16" height="16" fill="white" transform="translate(0 0.689941)"/>
</clipPath>
</defs>
</svg>
