<svg width="16" height="17" viewBox="0 0 16 17" fill="none" xmlns="http://www.w3.org/2000/svg">
<g clip-path="url(#clip0_439_7)">
<mask id="mask0_439_7" style="mask-type:alpha" maskUnits="userSpaceOnUse" x="0" y="0" width="16" height="17">
<path d="M8 16.6899C12.4183 16.6899 16 13.1082 16 8.68994C16 4.27166 12.4183 0.689941 8 0.689941C3.58172 0.689941 0 4.27166 0 8.68994C0 13.1082 3.58172 16.6899 8 16.6899Z" fill="#C4C4C4"/>
</mask>
<g mask="url(#mask0_439_7)">
<path d="M17.2727 0.689941H-6V16.6899H17.2727V0.689941Z" fill="#EEF3F8"/>
<path d="M7.09093 0.689941H-6V10.8717H7.09093V0.689941Z" fill="#41479B"/>
<path d="M17.2727 0.689941H7.09094V2.14449H17.2727V0.689941Z" fill="#DC251C"/>
<path d="M17.2727 3.59912H7.09094V5.05367H17.2727V3.59912Z" fill="#DC251C"/>
<path d="M17.2727 6.5083H7.09094V7.96285H17.2727V6.5083Z" fill="#DC251C"/>
<path d="M17.2727 9.41699H7.09094V10.8715H17.2727V9.41699Z" fill="#DC251C"/>
<path d="M17.2727 12.3262H-6V13.7807H17.2727V12.3262Z" fill="#DC251C"/>
<path d="M17.2727 15.2354H-6V16.6899H17.2727V15.2354Z" fill="#DC251C"/>
<path d="M2.72737 2.14453H1.27283V3.59908H2.72737V2.14453Z" fill="#C5D0EC"/>
<path d="M5.63631 2.14453H4.18176V3.59908H5.63631V2.14453Z" fill="#C5D0EC"/>
<path d="M2.72737 5.05371H1.27283V6.50826H2.72737V5.05371Z" fill="#C5D0EC"/>
<path d="M1.27278 6.5083H-0.181763V7.96285H1.27278V6.5083Z" fill="#C5D0EC"/>
<path d="M4.18172 6.5083H2.72717V7.96285H4.18172V6.5083Z" fill="#C5D0EC"/>
<path d="M1.27278 3.59912H-0.181763V5.05367H1.27278V3.59912Z" fill="#C5D0EC"/>
<path d="M4.18172 3.59912H2.72717V5.05367H4.18172V3.59912Z" fill="#C5D0EC"/>
<path d="M5.63631 5.05371H4.18176V6.50826H5.63631V5.05371Z" fill="#C5D0EC"/>
<path d="M2.72737 7.96289H1.27283V9.41744H2.72737V7.96289Z" fill="#C5D0EC"/>
<path d="M5.63631 7.96289H4.18176V9.41744H5.63631V7.96289Z" fill="#C5D0EC"/>
</g>
</g>
<defs>
<clipPath id="clip0_439_7">
<rect width="16" height="16" fill="white" transform="translate(0 0.689941)"/>
</clipPath>
</defs>
</svg>
