<svg width="111" height="20" viewBox="0 0 111 20" fill="none" xmlns="http://www.w3.org/2000/svg">
<path fill-rule="evenodd" clip-rule="evenodd" d="M8.87091 1.57439L6.50371 6.27563L1.20743 7.03194C0.257567 7.16691 -0.123074 8.31381 0.565702 8.97076L4.39749 12.628L3.49119 17.7945C3.32807 18.7283 4.33224 19.4277 5.1733 18.991L9.91128 16.5517L14.6494 18.991C15.4903 19.4243 16.4945 18.7283 16.3314 17.7945L15.4251 12.628L19.2569 8.97076C19.9456 8.31381 19.565 7.16691 18.6152 7.03194L13.319 6.27563L10.9518 1.57439C10.5276 0.736398 9.29869 0.725745 8.87091 1.57439ZM99.7823 1.57439L97.4151 6.27563L92.1187 7.03194C91.1689 7.16691 90.7889 8.31381 91.4772 8.97076L95.3095 12.628L94.4024 17.7945C94.2393 18.7283 95.2438 19.4277 96.0843 18.991L100.823 16.5517L105.561 18.991C106.402 19.4243 107.406 18.7283 107.243 17.7945L106.337 12.628L110.168 8.97076C110.857 8.31381 110.476 7.16691 109.527 7.03194L104.23 6.27563L101.863 1.57439C101.439 0.736398 100.21 0.725745 99.7823 1.57439ZM29.5346 6.27563L31.9018 1.57439C32.3296 0.725745 33.5585 0.736398 33.9826 1.57439L36.3498 6.27563L41.6461 7.03194C42.5959 7.16691 42.9766 8.31381 42.2878 8.97076L38.456 12.628L39.3623 17.7945C39.5254 18.7283 38.5212 19.4243 37.6803 18.991L32.9422 16.5517L28.2042 18.991C27.3631 19.4277 26.359 18.7283 26.5221 17.7945L27.4284 12.628L23.5966 8.97076C22.9078 8.31381 23.2885 7.16691 24.2382 7.03194L29.5346 6.27563ZM54.2611 1.57439L51.746 6.27563L46.1187 7.03194C45.1095 7.16691 44.705 8.31381 45.4369 8.97076L49.5081 12.628L48.5452 17.7945C48.3719 18.7283 49.4388 19.4277 50.3324 18.991L55.3666 16.5517L60.4007 18.991C61.2942 19.4243 62.3616 18.7283 62.1879 17.7945L61.2249 12.628L65.2957 8.97076C66.0278 8.31381 65.6239 7.16691 64.6144 7.03194L58.9871 6.27563L56.472 1.57439C56.0213 0.736398 54.7156 0.725745 54.2611 1.57439ZM74.3836 6.27563L76.7508 1.57439C77.1785 0.725745 78.4078 0.736398 78.8315 1.57439L81.1987 6.27563L86.4951 7.03194C87.445 7.16691 87.8259 8.31381 87.1367 8.97076L83.3054 12.628L84.2115 17.7945C84.3746 18.7283 83.371 19.4243 82.5295 18.991L77.7912 16.5517L73.0538 18.991C72.2123 19.4277 71.2077 18.7283 71.3719 17.7945L72.278 12.628L68.4457 8.97076C67.7574 8.31381 68.1373 7.16691 69.0872 7.03194L74.3836 6.27563Z" fill="white"/>
</svg>
