<svg width="140" height="47" viewBox="0 0 140 47" fill="none" xmlns="http://www.w3.org/2000/svg">
<path d="M46.8181 32.2547C46.716 32.2547 46.6333 32.172 46.6333 32.0699V20.3366C46.6333 20.2346 46.716 20.1518 46.8181 20.1518H50.215C50.3171 20.1518 50.3998 20.2346 50.3998 20.3366V32.0699C50.3998 32.172 50.3171 32.2547 50.215 32.2547H46.8181ZM48.5166 18.6026C47.9532 18.6026 47.4542 18.3929 47.0196 17.9733C46.6011 17.5376 46.3918 17.0373 46.3918 16.4725C46.3918 15.8754 46.6011 15.3752 47.0196 14.9717C47.4542 14.5522 47.9532 14.3424 48.5166 14.3424C49.096 14.3424 49.595 14.5522 50.0135 14.9717C50.432 15.3752 50.6412 15.8754 50.6412 16.4725C50.6412 17.0373 50.432 17.5376 50.0135 17.9733C49.595 18.3929 49.096 18.6026 48.5166 18.6026Z" fill="white"/>
<path d="M54.9396 32.2547C54.8375 32.2547 54.7548 32.172 54.7548 32.0699V29.0023C54.7548 28.9002 54.8375 28.8175 54.9396 28.8175H59.7767C60.4368 28.8175 60.9598 28.6481 61.3462 28.3092C61.7325 27.9541 61.9256 27.5023 61.9256 26.9536C61.9256 26.3727 61.7244 25.9128 61.322 25.5739C60.9196 25.2351 60.3643 25.0737 59.6561 25.0898H54.9396C54.8375 25.0898 54.7548 25.007 54.7548 24.905V22.3277C54.7548 22.2233 54.8413 22.1396 54.9457 22.143L57.6762 22.2336C59.3019 22.2336 60.7345 22.4029 61.9739 22.7419C63.2294 23.0646 64.2033 23.5971 64.8953 24.3395C65.5875 25.0656 65.9335 26.0581 65.9335 27.3168C65.9335 28.3818 65.6921 29.2855 65.2092 30.0278C64.7263 30.754 64.0584 31.3108 63.2052 31.698C62.3522 32.0692 61.3542 32.2547 60.2114 32.2547H54.9396ZM53.6841 32.2547C53.582 32.2547 53.4993 32.172 53.4993 32.0699V15.4955C53.4993 15.3934 53.582 15.3107 53.6841 15.3107H57.1051C57.2072 15.3107 57.2899 15.3934 57.2899 15.4955V32.0699C57.2899 32.172 57.2072 32.2547 57.1051 32.2547H53.6841ZM54.8142 25.3101C54.7051 25.3218 54.6099 25.2362 54.6099 25.1264V22.1521C54.6099 22.05 54.6926 21.9673 54.7947 21.9673H59.2939C59.9055 21.9673 60.3965 21.814 60.7667 21.5074C61.1369 21.1846 61.322 20.7408 61.322 20.176C61.322 19.5951 61.1208 19.1432 60.7184 18.8205C60.3321 18.4977 59.809 18.3444 59.1491 18.3606H54.7947C54.6926 18.3606 54.6099 18.2778 54.6099 18.1758V15.5411C54.6099 15.4401 54.691 15.3578 54.7919 15.3563L59.4146 15.2865C60.5735 15.2865 61.5956 15.472 62.4809 15.8432C63.3662 16.1982 64.0584 16.7388 64.5573 17.465C65.0564 18.1912 65.3059 19.111 65.3059 20.2244C65.3059 21.0797 64.9839 21.8704 64.3401 22.5966C63.7123 23.3067 62.8351 23.8876 61.7084 24.3395C60.5815 24.7751 59.2778 24.993 57.797 24.993L54.8142 25.3101Z" fill="white"/>
<path d="M75.8865 32.2547C75.7914 32.2547 75.7118 32.1826 75.7026 32.0879L75.5016 30.0278V20.3366C75.5016 20.2346 75.5843 20.1518 75.6864 20.1518H79.0833C79.1853 20.1518 79.2681 20.2346 79.2681 20.3366V32.0699C79.2681 32.172 79.1853 32.2547 79.0833 32.2547H75.8865ZM67.7271 27.0747V20.3366C67.7271 20.2346 67.8098 20.1518 67.9119 20.1518H71.3088C71.4109 20.1518 71.4936 20.2346 71.4936 20.3366V26.3485L67.7271 27.0747ZM71.4936 26.3485C71.4936 26.9778 71.566 27.4862 71.7109 27.8735C71.8558 28.2608 72.065 28.5432 72.3386 28.7207C72.6122 28.8982 72.9343 28.995 73.3044 29.0112C74.0287 29.0112 74.576 28.8095 74.9463 28.406C75.2882 28.0185 75.4722 27.4588 75.4984 26.7271C75.502 26.6251 75.5843 26.5422 75.6864 26.5422H76.4516C76.5536 26.5422 76.6365 26.6251 76.635 26.7271C76.617 27.9226 76.4244 28.9503 76.0569 29.81C75.6706 30.6975 75.1394 31.3753 74.4634 31.8433C73.8034 32.3113 73.0389 32.5452 72.1696 32.5452C70.7049 32.5452 69.5943 32.1014 68.8377 31.2139C68.0973 30.3103 67.7271 28.9304 67.7271 27.0747L71.4936 26.3485Z" fill="white"/>
<path d="M87.7486 32.5452C86.4609 32.5452 85.31 32.2789 84.2959 31.7464C83.2979 31.1978 82.5173 30.4474 81.954 29.4953C81.3906 28.527 81.1089 27.4297 81.1089 26.2033C81.1089 24.9608 81.3906 23.8634 81.954 22.9113C82.5173 21.9592 83.2899 21.2169 84.2718 20.6844C85.2698 20.1357 86.4126 19.8614 87.7003 19.8614C88.9397 19.8614 90.0745 20.176 91.1046 20.8053C92.083 21.4031 92.7999 22.2555 93.2554 23.3626C93.2952 23.4594 93.2434 23.5685 93.1445 23.602L89.9105 24.6974C89.8208 24.7278 89.7234 24.6849 89.6768 24.6024C89.4954 24.2825 89.2229 24.0173 88.8592 23.807C88.4568 23.5487 88.0061 23.4196 87.5071 23.4196C87.0082 23.4196 86.5655 23.5407 86.1792 23.7828C85.809 24.0087 85.5112 24.3313 85.2858 24.7509C85.0766 25.1705 84.9719 25.6546 84.9719 26.2033C84.9719 26.7519 85.0766 27.2361 85.2858 27.6556C85.5112 28.0591 85.817 28.3818 86.2034 28.6239C86.6058 28.866 87.0565 28.987 87.5555 28.987C88.0544 28.987 88.5051 28.8579 88.9075 28.5997C89.2612 28.3727 89.5342 28.0833 89.7262 27.7317C89.7716 27.6487 89.8689 27.6061 89.9584 27.6364L93.1917 28.7315C93.2915 28.7652 93.3432 28.8752 93.3025 28.9721C92.8322 30.0954 92.1076 30.9637 91.1288 31.577C90.1147 32.2225 88.988 32.5452 87.7486 32.5452Z" fill="white"/>
<path d="M98.6783 29.4069C98.6044 29.4918 98.4723 29.4907 98.3993 29.4047L96.4201 27.0762C96.361 27.0059 96.3619 26.9024 96.4229 26.8336L102.322 20.2137C102.357 20.1743 102.407 20.1518 102.459 20.1518H106.387C106.546 20.1518 106.63 20.339 106.526 20.4585L98.6783 29.4069ZM95.1487 32.2547C95.047 32.2547 94.9639 32.172 94.9639 32.0699V15.4955C94.9639 15.3934 95.047 15.3107 95.1487 15.3107H98.5462C98.6478 15.3107 98.731 15.3934 98.731 15.4955V32.0699C98.731 32.172 98.6478 32.2547 98.5462 32.2547H95.1487ZM102.834 32.2547C102.774 32.2547 102.718 32.2253 102.684 32.1759L99.0831 27.029C99.0322 26.957 99.0396 26.8595 99.1006 26.7958L101.304 24.4777C101.385 24.3935 101.521 24.4032 101.589 24.4979L106.901 31.9628C106.988 32.0851 106.901 32.2547 106.75 32.2547H102.834Z" fill="white"/>
<path d="M113.515 32.5452C112.259 32.5452 111.149 32.2789 110.183 31.7464C109.217 31.1978 108.461 30.4474 107.913 29.4953C107.366 28.5432 107.092 27.4459 107.092 26.2033C107.092 24.9446 107.366 23.8392 107.913 22.8871C108.476 21.935 109.242 21.1927 110.207 20.6602C111.173 20.1276 112.292 19.8614 113.563 19.8614C114.706 19.8614 115.736 20.1357 116.654 20.6844C117.571 21.2331 118.295 22.0479 118.826 23.1291C119.353 24.1688 119.626 25.4546 119.646 26.9866C119.648 27.0886 119.564 27.1715 119.463 27.1715H116.09C115.988 27.1715 115.905 27.0887 115.904 26.9867C115.893 26.1001 115.805 25.3549 115.639 24.7509C115.479 24.1054 115.212 23.6213 114.843 23.2986C114.489 22.9597 114.014 22.7903 113.418 22.7903C112.854 22.7903 112.388 22.9274 112.018 23.2017C111.648 23.46 111.374 23.8553 111.197 24.3879C111.02 24.9042 110.931 25.5578 110.931 26.3485C110.931 27.0747 111.052 27.6637 111.294 28.1156C111.551 28.5512 111.881 28.874 112.283 29.0838C112.686 29.2936 113.129 29.3985 113.611 29.3985C114.19 29.3985 114.674 29.2694 115.06 29.0112C115.407 28.788 115.665 28.5106 115.832 28.1789C115.877 28.091 115.978 28.0437 116.071 28.0755L119.121 29.1164C119.223 29.1511 119.274 29.2649 119.228 29.3621C118.912 30.0401 118.481 30.6089 117.933 31.0687C117.353 31.5689 116.685 31.9401 115.929 32.1821C115.173 32.4242 114.368 32.5452 113.515 32.5452ZM109.693 27.1715C109.591 27.1715 109.508 27.0877 109.509 26.985L109.529 24.7646C109.53 24.6632 109.613 24.5815 109.714 24.5815H117.676C117.778 24.5815 117.861 24.6642 117.861 24.7663V26.9867C117.861 27.0888 117.778 27.1715 117.676 27.1715H109.693Z" fill="white"/>
<path d="M126.421 32.5452C124.989 32.5452 123.918 32.2063 123.211 31.5285C122.518 30.8347 122.172 29.8503 122.172 28.5754V16.5605C122.172 16.4585 122.255 16.3757 122.357 16.3757H125.754C125.856 16.3757 125.939 16.4585 125.939 16.5605V27.6314C125.939 28.1156 126.027 28.4706 126.204 28.6965C126.382 28.9224 126.655 29.0354 127.025 29.0354C127.17 29.0354 127.339 29.0031 127.532 28.9386C127.654 28.8876 127.77 28.8303 127.879 28.7664C127.977 28.7086 128.108 28.7428 128.157 28.8463L129.306 31.2784C129.342 31.3545 129.322 31.4455 129.256 31.4973C128.892 31.7814 128.463 32.0258 127.966 32.2305C127.436 32.4403 126.92 32.5452 126.421 32.5452ZM120.474 23.3228C120.372 23.3228 120.289 23.2401 120.289 23.138V20.3366C120.289 20.2346 120.372 20.1518 120.474 20.1518H128.506C128.609 20.1518 128.691 20.2346 128.691 20.3366V23.138C128.691 23.2401 128.609 23.3228 128.506 23.3228H120.474Z" fill="white"/>
<path fill-rule="evenodd" clip-rule="evenodd" d="M37.0556 19.7451C37.0583 19.6385 37.0595 19.5316 37.0595 19.4244C37.0595 12.4332 31.392 6.76562 24.4007 6.76562C17.4095 6.76562 11.7419 12.4332 11.7419 19.4244C11.7419 19.5316 11.7432 19.6385 11.7459 19.7451C11.7467 19.7766 11.7476 19.808 11.7486 19.8393C11.7678 20.4363 11.8284 21.0229 11.9275 21.5961L11.9267 21.5958L13.8079 34.578H13.8083C14.052 36.7443 15.6082 38.5296 17.6555 39.1056C19.7734 39.8329 22.0361 40.2144 24.4007 40.2144C26.7654 40.2144 29.028 39.8329 31.1459 39.1056C33.1227 38.5182 34.7495 36.7443 34.9932 34.578L36.8747 21.5958L36.874 21.5961C36.9783 20.9926 37.04 20.3746 37.0556 19.7451ZM32.3123 17.0096C32.3534 17.0178 32.396 17.022 32.4395 17.022C32.7968 17.022 33.0863 16.7324 33.0863 16.3752C33.0863 16.3136 33.0777 16.2539 33.0616 16.1974C33.0489 16.1634 33.0361 16.1295 33.0231 16.0958C33.0186 16.0867 33.0141 16.0776 33.0093 16.0687L33.0116 16.0664C31.668 12.6236 28.3192 10.1844 24.4007 10.1844C20.4895 10.1844 17.1457 12.6146 15.7973 16.0476L15.8016 16.0519C15.7934 16.0661 15.7856 16.0807 15.7785 16.0957C15.7654 16.1295 15.7526 16.1634 15.7399 16.1974C15.7237 16.2539 15.7151 16.3136 15.7151 16.3752C15.7151 16.7324 16.0047 17.022 16.3619 17.022C16.4056 17.022 16.4481 17.0177 16.4893 17.0095C18.928 16.0052 21.5996 15.4512 24.4007 15.4512C27.2018 15.4512 29.8736 16.0052 32.3123 17.0096ZM24.4007 24.0444C28.9936 24.0444 32.7167 22.8654 32.7167 21.411C32.7167 19.9566 28.9936 18.7776 24.4007 18.7776C19.8079 18.7776 16.0847 19.9566 16.0847 21.411C16.0847 22.8654 19.8079 24.0444 24.4007 24.0444Z" fill="#5364FF"/>
<path fill-rule="evenodd" clip-rule="evenodd" d="M37.0556 19.7451C37.0583 19.6385 37.0595 19.5316 37.0595 19.4244C37.0595 12.4332 31.392 6.76562 24.4007 6.76562C17.4095 6.76562 11.7419 12.4332 11.7419 19.4244C11.7419 19.5316 11.7432 19.6385 11.7459 19.7451C11.7467 19.7766 11.7476 19.808 11.7486 19.8393C11.7678 20.4363 11.8284 21.0229 11.9275 21.5961L11.9267 21.5958L13.8079 34.578H13.8083C14.052 36.7443 15.6082 38.5296 17.6555 39.1056C19.7734 39.8329 22.0361 40.2144 24.4007 40.2144C26.7654 40.2144 29.028 39.8329 31.1459 39.1056C33.1227 38.5182 34.7495 36.7443 34.9932 34.578L36.8747 21.5958L36.874 21.5961C36.9783 20.9926 37.04 20.3746 37.0556 19.7451ZM32.3123 17.0096C32.3534 17.0178 32.396 17.022 32.4395 17.022C32.7968 17.022 33.0863 16.7324 33.0863 16.3752C33.0863 16.3136 33.0777 16.2539 33.0616 16.1974C33.0489 16.1634 33.0361 16.1295 33.0231 16.0958C33.0186 16.0867 33.0141 16.0776 33.0093 16.0687L33.0116 16.0664C31.668 12.6236 28.3192 10.1844 24.4007 10.1844C20.4895 10.1844 17.1457 12.6146 15.7973 16.0476L15.8016 16.0519C15.7934 16.0661 15.7856 16.0807 15.7785 16.0957C15.7654 16.1295 15.7526 16.1634 15.7399 16.1974C15.7237 16.2539 15.7151 16.3136 15.7151 16.3752C15.7151 16.7324 16.0047 17.022 16.3619 17.022C16.4056 17.022 16.4481 17.0177 16.4893 17.0095C18.928 16.0052 21.5996 15.4512 24.4007 15.4512C27.2018 15.4512 29.8736 16.0052 32.3123 17.0096ZM24.4007 24.0444C28.9936 24.0444 32.7167 22.8654 32.7167 21.411C32.7167 19.9566 28.9936 18.7776 24.4007 18.7776C19.8079 18.7776 16.0847 19.9566 16.0847 21.411C16.0847 22.8654 19.8079 24.0444 24.4007 24.0444Z" fill="#6962FF"/>
</svg>
