<svg width="186" height="58" viewBox="0 0 186 58" fill="none" xmlns="http://www.w3.org/2000/svg">
<g clip-path="url(#clip0_1_3054)">
<path d="M155.348 55.5691C148.953 58.0455 146.352 55.6995 146.352 54.2188C148.618 54.0278 154.031 53.7171 155.348 55.5691ZM163.466 53.5444C161.877 54.7116 159.926 55.2766 157.96 55.1386C155.994 55.0007 154.141 54.1687 152.731 52.7911C154.913 52.1849 160.873 51.4665 163.466 53.5444ZM152.646 48.731C152.889 51.8121 149.733 53.5444 146.326 53.7944C146.948 50.6951 150.129 49.3114 152.646 48.731ZM158.757 45.8908C159.118 47.2078 158.622 50.783 153.721 52.2016C153.931 49.7873 155.215 46.6441 158.757 45.8908ZM168.476 49.4751C167.219 50.7289 165.563 51.5022 163.794 51.6603C162.026 51.8185 160.259 51.3514 158.799 50.3405C160.763 49.3281 165.48 47.9611 168.476 49.4751ZM163.297 42.3429C163.969 43.6402 164.111 47.3367 159.772 49.5615C159.521 47.1821 160.477 43.1128 163.297 42.3429ZM174.032 43.7797C173.624 44.5834 173.056 45.2957 172.364 45.8733C171.672 46.4509 170.869 46.8817 170.005 47.1396C169.149 47.3909 168.251 47.4613 167.366 47.3465C166.482 47.2317 165.631 46.9342 164.868 46.4728C167.603 43.9009 171.968 42.9143 174.032 43.7797ZM167.545 36.8885C169.491 40.2833 167.435 44.1601 165.295 45.7529C164.343 42.5975 165.216 39.1588 167.544 36.8885H167.545ZM177.642 36.7415C177.877 42.0141 172.371 41.7276 169.785 41.7625C170.599 40.6546 175.123 36.6384 177.642 36.7415ZM170.852 31.8159C171.875 32.942 173.411 37.2704 170.011 40.8016C168.946 38.2479 168.712 34.3272 170.852 31.8159ZM180.529 29.4789C180.705 33.7376 177.121 35.8928 173.664 35.8594C174.703 33.8074 177.483 29.8518 180.529 29.4789ZM173.277 26.5448C175.569 27.8937 175.308 32.2494 173.956 34.5166C172.438 32.4055 171.304 29.7821 173.277 26.5448ZM180.679 22.5544C181.813 26.4327 178.482 29.0561 176.483 29.2804C176.995 27.4284 177.666 24.1472 180.681 22.5544H180.679ZM173.697 21.2647C176.224 22.5301 177.421 25.5567 176.475 28.2847C174.713 26.8646 172.589 23.8608 173.697 21.2647ZM180.797 16.5725C182.358 21.2904 178.774 22.8317 177.441 23.2106C177.6 21.204 178.876 17.2045 180.797 16.5725ZM173.797 15.3343C174.822 15.6299 177.742 18.0275 177.213 22.321C175.291 21.2389 172.958 19.1778 173.797 15.3343ZM179.74 9.42371C181.486 15.2222 178.573 17.6031 177.616 18.0775C177.465 16.2437 177.28 11.9592 179.74 9.42371ZM173.277 9.5692C175.107 10.0799 177.415 13.4384 177.306 16.668C175.493 15.8375 172.782 12.3835 173.277 9.5692ZM173.823 0.575928C178.069 4.96496 178.665 8.42648 177.424 12.6942C175.501 10.9635 173.965 5.76972 173.823 0.575928Z" fill="white"/>
<path d="M155.348 55.5691C148.953 58.0455 146.352 55.6995 146.352 54.2188C148.618 54.0278 154.031 53.7171 155.348 55.5691ZM163.466 53.5444C161.877 54.7116 159.926 55.2766 157.96 55.1386C155.994 55.0007 154.141 54.1687 152.731 52.7911C154.913 52.1849 160.873 51.4665 163.466 53.5444ZM152.646 48.731C152.889 51.8121 149.733 53.5444 146.326 53.7944C146.948 50.6951 150.129 49.3114 152.646 48.731ZM158.757 45.8908C159.118 47.2078 158.622 50.783 153.721 52.2016C153.931 49.7873 155.215 46.6441 158.757 45.8908ZM168.476 49.4751C167.219 50.7289 165.563 51.5022 163.794 51.6603C162.026 51.8185 160.259 51.3514 158.799 50.3405C160.763 49.3281 165.48 47.9611 168.476 49.4751ZM163.297 42.3429C163.969 43.6402 164.111 47.3367 159.772 49.5615C159.521 47.1821 160.477 43.1128 163.297 42.3429ZM174.032 43.7797C173.624 44.5834 173.056 45.2957 172.364 45.8733C171.672 46.4509 170.869 46.8817 170.005 47.1396C169.149 47.3909 168.251 47.4613 167.366 47.3465C166.482 47.2317 165.631 46.9342 164.868 46.4728C167.603 43.9009 171.968 42.9143 174.032 43.7797ZM167.545 36.8885C169.491 40.2833 167.435 44.1601 165.295 45.7529C164.343 42.5975 165.216 39.1588 167.544 36.8885H167.545ZM177.642 36.7415C177.877 42.0141 172.371 41.7276 169.785 41.7625C170.599 40.6546 175.123 36.6384 177.642 36.7415ZM170.852 31.8159C171.875 32.942 173.411 37.2704 170.011 40.8016C168.946 38.2479 168.712 34.3272 170.852 31.8159ZM180.529 29.4789C180.705 33.7376 177.121 35.8928 173.664 35.8594C174.703 33.8074 177.483 29.8518 180.529 29.4789ZM173.277 26.5448C175.569 27.8937 175.308 32.2494 173.956 34.5166C172.438 32.4055 171.304 29.7821 173.277 26.5448ZM180.679 22.5544C181.813 26.4327 178.482 29.0561 176.483 29.2804C176.995 27.4284 177.666 24.1472 180.681 22.5544H180.679ZM173.697 21.2647C176.224 22.5301 177.421 25.5567 176.475 28.2847C174.713 26.8646 172.589 23.8608 173.697 21.2647ZM180.797 16.5725C182.358 21.2904 178.774 22.8317 177.441 23.2106C177.6 21.204 178.876 17.2045 180.797 16.5725ZM173.797 15.3343C174.822 15.6299 177.742 18.0275 177.213 22.321C175.291 21.2389 172.958 19.1778 173.797 15.3343ZM179.74 9.42371C181.486 15.2222 178.573 17.6031 177.616 18.0775C177.465 16.2437 177.28 11.9592 179.74 9.42371ZM173.277 9.5692C175.107 10.0799 177.415 13.4384 177.306 16.668C175.493 15.8375 172.782 12.3835 173.277 9.5692ZM173.823 0.575928C178.069 4.96496 178.665 8.42648 177.424 12.6942C175.501 10.9635 173.965 5.76972 173.823 0.575928Z" fill="white"/>
<path d="M31.0955 55.569C37.4911 58.0454 40.0918 55.6994 40.0918 54.2187C37.826 54.0277 32.4125 53.717 31.0955 55.569Z" fill="white"/>
<path d="M31.0955 55.569C37.4911 58.0454 40.0918 55.6994 40.0918 54.2187C37.826 54.0277 32.4125 53.717 31.0955 55.569Z" fill="white"/>
<path d="M28.4819 55.1388C26.5157 55.2768 24.5645 54.7118 22.9763 53.5446C25.5694 51.4667 31.5285 52.1851 33.7109 52.7913C32.3013 54.1689 30.4481 55.0009 28.4819 55.1388Z" fill="white"/>
<path d="M28.4819 55.1388C26.5157 55.2768 24.5645 54.7118 22.9763 53.5446C25.5694 51.4667 31.5285 52.1851 33.7109 52.7913C32.3013 54.1689 30.4481 55.0009 28.4819 55.1388Z" fill="white"/>
<path d="M33.7961 48.7312C33.5536 51.8123 36.709 53.5446 40.1159 53.7946C39.4946 50.6953 36.3134 49.3116 33.7961 48.7312Z" fill="white"/>
<path d="M33.7961 48.7312C33.5536 51.8123 36.709 53.5446 40.1159 53.7946C39.4946 50.6953 36.3134 49.3116 33.7961 48.7312Z" fill="white"/>
<path d="M27.6863 45.8909C27.3256 47.2079 27.8213 50.7831 32.7226 52.2017C32.5119 49.7874 31.2282 46.6442 27.6863 45.8909Z" fill="white"/>
<path d="M27.6863 45.8909C27.3256 47.2079 27.8213 50.7831 32.7226 52.2017C32.5119 49.7874 31.2282 46.6442 27.6863 45.8909Z" fill="white"/>
<path d="M22.6483 51.6602C20.8801 51.5021 19.2234 50.7288 17.9666 49.475C20.9628 47.961 25.6792 49.328 27.6434 50.3404C26.1841 51.3513 24.4165 51.8184 22.6483 51.6602Z" fill="white"/>
<path d="M22.6483 51.6602C20.8801 51.5021 19.2234 50.7288 17.9666 49.475C20.9628 47.961 25.6792 49.328 27.6434 50.3404C26.1841 51.3513 24.4165 51.8184 22.6483 51.6602Z" fill="white"/>
<path d="M23.1455 42.343C22.4741 43.6403 22.3317 47.3368 26.6707 49.5616C26.9223 47.1822 25.966 43.1129 23.1455 42.343Z" fill="white"/>
<path d="M23.1455 42.343C22.4741 43.6403 22.3317 47.3368 26.6707 49.5616C26.9223 47.1822 25.966 43.1129 23.1455 42.343Z" fill="white"/>
<path d="M14.0802 45.8733C13.388 45.2957 12.8204 44.5834 12.4119 43.7797C14.4761 42.9143 18.8409 43.9009 21.5764 46.4728C20.8131 46.9342 19.9622 47.2316 19.0777 47.3464C18.1932 47.4612 17.2945 47.3909 16.4387 47.1396C15.5748 46.8817 14.7724 46.4509 14.0802 45.8733Z" fill="white"/>
<path d="M14.0802 45.8733C13.388 45.2957 12.8204 44.5834 12.4119 43.7797C14.4761 42.9143 18.8409 43.9009 21.5764 46.4728C20.8131 46.9342 19.9622 47.2316 19.0777 47.3464C18.1932 47.4612 17.2945 47.3909 16.4387 47.1396C15.5748 46.8817 14.7724 46.4509 14.0802 45.8733Z" fill="white"/>
<path d="M21.1487 45.7528C19.0088 44.16 16.9522 40.2832 18.8981 36.8884H18.8997C21.2275 39.1587 22.1005 42.5974 21.1487 45.7528Z" fill="white"/>
<path d="M21.1487 45.7528C19.0088 44.16 16.9522 40.2832 18.8981 36.8884H18.8997C21.2275 39.1587 22.1005 42.5974 21.1487 45.7528Z" fill="white"/>
<path d="M8.80196 36.7415C8.56705 42.0141 14.073 41.7276 16.6586 41.7625C15.8447 40.6546 11.3208 36.6384 8.80196 36.7415Z" fill="white"/>
<path d="M8.80196 36.7415C8.56705 42.0141 14.073 41.7276 16.6586 41.7625C15.8447 40.6546 11.3208 36.6384 8.80196 36.7415Z" fill="white"/>
<path d="M16.4323 40.8019C13.033 37.2707 14.5682 32.9423 15.5912 31.8162H15.5927C17.7327 34.3275 17.4978 38.2482 16.4323 40.8019Z" fill="white"/>
<path d="M16.4323 40.8019C13.033 37.2707 14.5682 32.9423 15.5912 31.8162H15.5927C17.7327 34.3275 17.4978 38.2482 16.4323 40.8019Z" fill="white"/>
<path d="M5.91613 29.4788C5.74032 33.7375 9.3246 35.8927 12.7816 35.8593C11.7419 33.8073 8.96238 29.8517 5.91613 29.4788Z" fill="white"/>
<path d="M5.91613 29.4788C5.74032 33.7375 9.3246 35.8927 12.7816 35.8593C11.7419 33.8073 8.96238 29.8517 5.91613 29.4788Z" fill="white"/>
<path d="M13.1671 26.5447C10.8755 27.8935 11.1362 32.2492 12.4881 34.5164C14.0067 32.4053 15.1403 29.7819 13.1671 26.5447Z" fill="white"/>
<path d="M13.1671 26.5447C10.8755 27.8935 11.1362 32.2492 12.4881 34.5164C14.0067 32.4053 15.1403 29.7819 13.1671 26.5447Z" fill="white"/>
<path d="M5.76441 22.5544C5.76435 22.5546 5.76448 22.5542 5.76441 22.5544C8.77772 24.1475 9.44879 27.4287 9.96097 29.2804C7.96208 29.0561 4.63138 26.4323 5.76441 22.5544Z" fill="white"/>
<path d="M5.76441 22.5544C5.76435 22.5546 5.76448 22.5542 5.76441 22.5544C8.77772 24.1475 9.44879 27.4287 9.96097 29.2804C7.96208 29.0561 4.63138 26.4323 5.76441 22.5544Z" fill="white"/>
<path d="M12.7466 21.2649C10.2202 22.5304 9.02289 25.5569 9.96859 28.2849C11.7312 26.8648 13.8545 23.861 12.7466 21.2649Z" fill="white"/>
<path d="M12.7466 21.2649C10.2202 22.5304 9.02289 25.5569 9.96859 28.2849C11.7312 26.8648 13.8545 23.861 12.7466 21.2649Z" fill="white"/>
<path d="M5.646 16.5725C4.08498 21.2904 7.66926 22.8317 9.00294 23.2106C8.84381 21.204 7.56772 17.2045 5.646 16.5725Z" fill="white"/>
<path d="M5.646 16.5725C4.08498 21.2904 7.66926 22.8317 9.00294 23.2106C8.84381 21.204 7.56772 17.2045 5.646 16.5725Z" fill="white"/>
<path d="M12.6473 15.3342C11.6228 15.6298 8.70228 18.0274 9.2312 22.3209C11.153 21.2388 13.4869 19.1777 12.6473 15.3342Z" fill="white"/>
<path d="M12.6473 15.3342C11.6228 15.6298 8.70228 18.0274 9.2312 22.3209C11.153 21.2388 13.4869 19.1777 12.6473 15.3342Z" fill="white"/>
<path d="M6.7043 9.42358C4.95839 15.2221 7.87128 17.603 8.82759 18.0774C8.97914 16.2436 9.16404 11.9591 6.7043 9.42358Z" fill="white"/>
<path d="M6.7043 9.42358C4.95839 15.2221 7.87128 17.603 8.82759 18.0774C8.97914 16.2436 9.16404 11.9591 6.7043 9.42358Z" fill="white"/>
<path d="M13.1665 9.56909C11.3373 10.0798 9.02913 13.4383 9.13825 16.6679C10.9508 15.8374 13.6621 12.3834 13.1665 9.56909Z" fill="white"/>
<path d="M13.1665 9.56909C11.3373 10.0798 9.02913 13.4383 9.13825 16.6679C10.9508 15.8374 13.6621 12.3834 13.1665 9.56909Z" fill="white"/>
<path d="M12.6203 0.575928C8.37377 4.96496 7.77816 8.42648 9.01939 12.6942C10.9426 10.9635 12.4779 5.76972 12.6203 0.575928Z" fill="white"/>
<path d="M12.6203 0.575928C8.37377 4.96496 7.77816 8.42648 9.01939 12.6942C10.9426 10.9635 12.4779 5.76972 12.6203 0.575928Z" fill="white"/>
</g>
<defs>
<clipPath id="clip0_1_3054">
<rect width="185" height="57" fill="white" transform="translate(0.7146 0.575928)"/>
</clipPath>
</defs>
</svg>
