<svg width="23" height="30" viewBox="0 0 23 30" fill="none" xmlns="http://www.w3.org/2000/svg">
<path fill-rule="evenodd" clip-rule="evenodd" d="M22.2712 11.9632C22.2735 11.8709 22.2746 11.7784 22.2746 11.6856C22.2746 5.63255 17.3677 0.725586 11.3146 0.725586C5.2616 0.725586 0.354645 5.63255 0.354645 11.6856C0.354645 11.7784 0.355765 11.8709 0.358085 11.9632C0.358805 11.9905 0.359525 12.0177 0.360405 12.0448C0.377045 12.5617 0.429525 13.0695 0.515285 13.5658L0.514645 13.5656L2.14336 24.8056H2.14369C2.35473 26.6812 3.70208 28.2269 5.47464 28.7256C7.30832 29.3553 9.26736 29.6856 11.3146 29.6856C13.3619 29.6856 15.321 29.3553 17.1546 28.7256C18.8662 28.217 20.2746 26.6812 20.4856 24.8056L22.1146 13.5656L22.114 13.5658C22.2043 13.0433 22.2577 12.5082 22.2712 11.9632ZM18.1645 9.59479C18.2001 9.60191 18.237 9.60559 18.2746 9.60559C18.5839 9.60559 18.8346 9.35487 18.8346 9.04559C18.8346 8.99223 18.8272 8.94055 18.8132 8.89159C18.8022 8.86223 18.7911 8.83287 18.7798 8.80367C18.776 8.79575 18.7721 8.78791 18.7679 8.78023L18.7699 8.77823C17.6066 5.79743 14.7073 3.68559 11.3146 3.68559C7.92824 3.68559 5.03321 5.78967 3.86577 8.76191L3.86952 8.76567C3.86241 8.77799 3.85568 8.79063 3.84952 8.80359C3.83817 8.83287 3.82705 8.86223 3.81609 8.89167C3.80209 8.94055 3.79464 8.99223 3.79464 9.04559C3.79464 9.35487 4.04536 9.60559 4.35464 9.60559C4.3924 9.60559 4.4292 9.60183 4.46489 9.59471C6.57632 8.72519 8.88944 8.24559 11.3146 8.24559C13.7398 8.24559 16.053 8.72519 18.1645 9.59479ZM11.3146 15.6856C15.2911 15.6856 18.5146 14.6648 18.5146 13.4056C18.5146 12.1464 15.2911 11.1256 11.3146 11.1256C7.33816 11.1256 4.11464 12.1464 4.11464 13.4056C4.11464 14.6648 7.33816 15.6856 11.3146 15.6856Z" fill="white"/>
</svg>
